<svg width="1820" height="1820" viewBox="0 0 1820 1820" fill="none" xmlns="http://www.w3.org/2000/svg">
<path d="M910 1820C1412.58 1820 1820 1412.58 1820 910C1820 407.421 1412.58 0 910 0C407.421 0 0 407.421 0 910C0 1412.58 407.421 1820 910 1820Z" fill="#0047FF"/>
<path d="M825.659 801.652C866.426 758.037 748.426 358.269 825.659 284.269C902.892 210.269 938.891 239.269 950.082 284.269C961.273 329.268 950.082 801.652 950.082 801.652L1374.89 1032.27C1374.89 1032.27 1404.89 1106.27 1328.39 1074.17C1251.89 1042.08 982.082 852.153 950.082 926.269C918.082 1000.38 1007.5 1404 1036 1401C1064.5 1398 1467.39 1189 1328.39 1300.5C1189.39 1412 1198.39 1428.27 1078.39 1554.27C958.393 1680.27 938.891 1331.04 889.892 1344.77C840.892 1358.49 798.892 1540.27 741.392 1537.77C683.892 1535.27 640.999 1472 682 1472C723.001 1472 798.891 1353.27 798.891 1334.77C798.891 1316.27 809.427 927.268 825.659 875.767C841.891 824.266 511.892 1076.27 478.873 1074.17C445.855 1072.08 428.892 1061.77 445.392 1020.77C461.892 979.766 784.892 845.266 825.659 801.652Z" fill="#D9D9D9" stroke="black"/>
</svg>
